<svg width="24" height="25" viewBox="0 0 24 25" fill="none" xmlns="http://www.w3.org/2000/svg">
<g id="Close">
<path id="Union" d="M5.35355 5.29861C5.15829 5.10335 4.84171 5.10335 4.64645 5.29861C4.45118 5.49387 4.45118 5.81045 4.64645 6.00571L10.5858 11.9451C10.9763 12.3356 10.9763 12.9687 10.5858 13.3593L4.64645 19.2986C4.45118 19.4939 4.45118 19.8105 4.64645 20.0057C4.84171 20.201 5.15829 20.201 5.35355 20.0057L11.2929 14.0664C11.6834 13.6759 12.3166 13.6758 12.7071 14.0664L18.6464 20.0057C18.8417 20.201 19.1583 20.201 19.3536 20.0057C19.5488 19.8105 19.5488 19.4939 19.3536 19.2986L13.4142 13.3593C13.0237 12.9687 13.0237 12.3356 13.4142 11.9451L19.3536 6.00571C19.5488 5.81045 19.5488 5.49387 19.3536 5.29861C19.1583 5.10335 18.8417 5.10335 18.6464 5.29861L12.7071 11.2379C12.3166 11.6285 11.6834 11.6285 11.2929 11.2379L5.35355 5.29861Z" fill="#557184"/>
</g>
</svg>
