<svg xmlns="http://www.w3.org/2000/svg" width="25" height="24" fill="none" viewBox="0 0 25 24"><path fill="#557184" fill-rule="evenodd" d="M15.1464 4.64645C15.3417 4.45118 15.6583 4.45118 15.8536 4.64645L21.8536 10.6464C22.0488 10.8417 22.0488 11.1583 21.8536 11.3536L19.8536 13.3536C19.6583 13.5488 19.3417 13.5488 19.1464 13.3536L19 13.2071L17.4041 14.803C17.461 15.3563 17.2775 15.9296 16.8536 16.3536C16.4946 16.7125 16.0286 16.8991 15.5583 16.9133C15.5819 17.3411 15.4303 17.7768 15.1036 18.1036C14.814 18.3931 14.4389 18.5451 14.0595 18.5595C14.0451 18.9389 13.8931 19.314 13.6036 19.6036C12.9941 20.213 12.0059 20.213 11.3964 19.6036L5.73459 13.9417C5.54559 14.0422 5.30568 14.0128 5.14645 13.8536L3.14645 11.8536C2.95118 11.6583 2.95118 11.3417 3.14645 11.1464L8.64645 5.64645C8.84171 5.45118 9.15829 5.45118 9.35355 5.64645L11.3536 7.64645C11.5128 7.80568 11.5422 8.04559 11.4417 8.23459L12 8.79291L13.2929 7.50001L13.1464 7.35355C12.9512 7.15829 12.9512 6.84171 13.1464 6.64645L15.1464 4.64645ZM14.8543 15.6472C15.2114 16.0035 15.7897 16.0032 16.1464 15.6464C16.5035 15.2894 16.5035 14.7106 16.1464 14.3536L15.1464 13.3536L15.1431 13.3502L14 12.2071L13.3536 12.8536C12.606 13.6011 11.394 13.6011 10.6465 12.8536C9.89893 12.106 9.89893 10.894 10.6465 10.1464L11.2929 9.50001L10.75 8.95711L6.45711 13.25L12.1036 18.8964C12.3225 19.1154 12.6775 19.1154 12.8964 18.8964C13.1154 18.6775 13.1154 18.3225 12.8964 18.1036L11.6464 16.8536C11.4512 16.6583 11.4512 16.3417 11.6464 16.1464C11.8417 15.9512 12.1583 15.9512 12.3536 16.1464L13.6036 17.3964C13.8225 17.6154 14.1775 17.6154 14.3964 17.3964C14.6154 17.1775 14.6154 16.8225 14.3964 16.6036L13.1464 15.3536C12.9512 15.1583 12.9512 14.8417 13.1464 14.6464C13.3417 14.4512 13.6583 14.4512 13.8536 14.6464L14.8543 15.6472ZM14.2071 7L19.5 12.2929L20.7929 11L15.5 5.70711L14.2071 7ZM14 8.20711L11.3536 10.8536C10.9966 11.2106 10.9966 11.7894 11.3536 12.1464C11.7106 12.5035 12.2895 12.5035 12.6465 12.1464L14 10.7929L17 13.7929L18.2929 12.5L14 8.20711ZM4.20711 11.5L5.5 12.7929L10.2929 8L9 6.70711L4.20711 11.5Z" clip-rule="evenodd"/></svg>