<svg width="24" height="24" viewBox="0 0 24 24" fill="none" xmlns="http://www.w3.org/2000/svg">
<path fill-rule="evenodd" clip-rule="evenodd" d="M14.6464 4.64645C14.8417 4.45118 15.1583 4.45118 15.3536 4.64645L21.3536 10.6464C21.5488 10.8417 21.5488 11.1583 21.3536 11.3536L19.3536 13.3536C19.1583 13.5488 18.8417 13.5488 18.6464 13.3536L18.5 13.2071L16.9041 14.803C16.961 15.3563 16.7775 15.9296 16.3536 16.3536C15.9946 16.7125 15.5286 16.8991 15.0583 16.9133C15.0819 17.3411 14.9303 17.7768 14.6036 18.1036C14.314 18.3931 13.9389 18.5451 13.5595 18.5595C13.5451 18.9389 13.3931 19.314 13.1036 19.6036C12.4941 20.213 11.5059 20.213 10.8964 19.6036L5.23459 13.9417C5.04559 14.0422 4.80568 14.0128 4.64645 13.8536L2.64645 11.8536C2.45118 11.6583 2.45118 11.3417 2.64645 11.1464L8.14645 5.64645C8.34171 5.45118 8.65829 5.45118 8.85355 5.64645L10.8536 7.64645C11.0128 7.80568 11.0422 8.04559 10.9417 8.23459L11.5 8.79291L12.7929 7.50001L12.6464 7.35355C12.4512 7.15829 12.4512 6.84171 12.6464 6.64645L14.6464 4.64645ZM14.3543 15.6472C14.7114 16.0035 15.2897 16.0032 15.6464 15.6464C16.0035 15.2894 16.0035 14.7106 15.6464 14.3536L14.6464 13.3536L14.6431 13.3502L13.5 12.2071L12.8536 12.8536C12.106 13.6011 10.894 13.6011 10.1465 12.8536C9.39893 12.106 9.39893 10.894 10.1465 10.1464L10.7929 9.50001L10.25 8.95711L5.95711 13.25L11.6036 18.8964C11.8225 19.1154 12.1775 19.1154 12.3964 18.8964C12.6154 18.6775 12.6154 18.3225 12.3964 18.1036L11.1464 16.8536C10.9512 16.6583 10.9512 16.3417 11.1464 16.1464C11.3417 15.9512 11.6583 15.9512 11.8536 16.1464L13.1036 17.3964C13.3225 17.6154 13.6775 17.6154 13.8964 17.3964C14.1154 17.1775 14.1154 16.8225 13.8964 16.6036L12.6464 15.3536C12.4512 15.1583 12.4512 14.8417 12.6464 14.6464C12.8417 14.4512 13.1583 14.4512 13.3536 14.6464L14.3543 15.6472ZM13.7071 7L19 12.2929L20.2929 11L15 5.70711L13.7071 7ZM13.5 8.20711L10.8536 10.8536C10.4966 11.2106 10.4966 11.7894 10.8536 12.1464C11.2106 12.5035 11.7895 12.5035 12.1465 12.1464L13.5 10.7929L16.5 13.7929L17.7929 12.5L13.5 8.20711ZM3.70711 11.5L5 12.7929L9.79289 8L8.5 6.70711L3.70711 11.5Z" fill="#557184"/>
</svg>
