<svg width="24" height="24" viewBox="0 0 24 24" fill="none" xmlns="http://www.w3.org/2000/svg">
<path fill-rule="evenodd" clip-rule="evenodd" d="M15.3536 4.64645C15.1583 4.45118 14.8417 4.45118 14.6464 4.64645L12.6464 6.64645C12.4702 6.82273 12.453 7.09791 12.5951 7.29341L12.9439 7.63132L10.3234 10.3364C9.70093 10.9789 9.70905 12.002 10.3416 12.6345C10.9814 13.2743 12.0186 13.2743 12.6583 12.6345L14.5 10.7929L17.5819 13.8748L18.4629 13.17L18.6464 13.3536C18.8417 13.5488 19.1583 13.5488 19.3536 13.3536L21.3536 11.3536C21.5488 11.1583 21.5488 10.8417 21.3536 10.6464L15.3536 4.64645ZM19 12.2929L20.2929 11L15 5.70711L13.7071 7L19 12.2929Z" fill="#007DD0"/>
<path fill-rule="evenodd" clip-rule="evenodd" d="M16.8663 14.5735L14.5 12.2071L13.3654 13.3417C12.3352 14.3719 10.6648 14.3719 9.63452 13.3416C8.6158 12.3229 8.60272 10.6753 9.60513 9.64058L10.6067 8.6067L10.6036 8.60355L10.8015 8.40556L10.8829 8.32156C11.0483 8.12511 11.0385 7.83137 10.8536 7.64645L8.85355 5.64645C8.65829 5.45118 8.34171 5.45118 8.14645 5.64645L2.64645 11.1464C2.45118 11.3417 2.45118 11.6583 2.64645 11.8536L4.64645 13.8536C4.80568 14.0128 5.04559 14.0422 5.23459 13.9417L10.8964 19.6036C11.5059 20.213 12.4941 20.213 13.1036 19.6036C13.3932 19.314 13.5451 18.9389 13.5595 18.5595C13.9389 18.5451 14.314 18.3931 14.6036 18.1036C14.9303 17.7768 15.0819 17.3411 15.0583 16.9133C15.5286 16.8991 15.9946 16.7125 16.3536 16.3536C16.8365 15.8706 17.0075 15.1937 16.8663 14.5735ZM5 12.7929L3.70711 11.5L8.5 6.70711L9.79289 8L5 12.7929Z" fill="#007DD0"/>
</svg>
