<svg width="16" height="16" viewBox="0 0 16 16" fill="none" xmlns="http://www.w3.org/2000/svg">
<g id="Download">
<g id="Union">
<path d="M8.66663 3.33334C8.66663 2.96515 8.36815 2.66667 7.99996 2.66667C7.63177 2.66667 7.33329 2.96515 7.33329 3.33334V8.39053L5.8047 6.86193C5.54435 6.60158 5.12224 6.60158 4.86189 6.86193C4.60154 7.12228 4.60154 7.54439 4.86189 7.80474L7.52855 10.4714C7.7889 10.7318 8.21101 10.7318 8.47136 10.4714L11.138 7.80474C11.3984 7.54439 11.3984 7.12228 11.138 6.86193C10.8777 6.60158 10.4556 6.60158 10.1952 6.86193L8.66663 8.39053V3.33334Z" fill="#007DD0"/>
<path d="M3.99996 9.33334C3.99996 8.96515 3.70148 8.66667 3.33329 8.66667C2.9651 8.66667 2.66663 8.96515 2.66663 9.33334V12.3333C2.66663 12.8856 3.11434 13.3333 3.66663 13.3333H12.3333C12.8856 13.3333 13.3333 12.8856 13.3333 12.3333V9.33334C13.3333 8.96515 13.0348 8.66667 12.6666 8.66667C12.2984 8.66667 12 8.96515 12 9.33334V12H3.99996V9.33334Z" fill="#007DD0"/>
</g>
</g>
</svg>
