<svg width="24" height="24" viewBox="0 0 24 24" fill="none" xmlns="http://www.w3.org/2000/svg">
<path d="M13.5349 4.56034C12.6321 3.85818 11.368 3.85818 10.4652 4.56034L2.69306 10.6053C2.52445 10.7365 2.45777 10.9602 2.52709 11.1623C2.59642 11.3643 2.78643 11.5 3.00003 11.5H4.50003C4.77617 11.5 5.00003 11.7239 5.00003 12V18.5C5.00003 19.3284 5.6716 20 6.50003 20H8.50003C9.32846 20 10 19.3284 10 18.5V13.5C10 13.2239 10.2239 13 10.5 13H13.5C13.7762 13 14 13.2239 14 13.5V18.5C14 19.3284 14.6716 20 15.5 20H17.5C18.3285 20 19 19.3284 19 18.5V12C19 11.7239 19.2239 11.5 19.5 11.5H21C21.2136 11.5 21.4036 11.3643 21.473 11.1623C21.5423 10.9602 21.4756 10.7365 21.307 10.6053L13.5349 4.56034Z" fill="#007DD0"/>
</svg>
