<svg width="24" height="24" viewBox="0 0 24 24" fill="none" xmlns="http://www.w3.org/2000/svg">
<path fill-rule="evenodd" clip-rule="evenodd" d="M12.9209 5.34969C12.3792 4.9284 11.6208 4.9284 11.0791 5.34969L4.45727 10.5H4.5C5.32843 10.5 6 11.1716 6 12V18.5C6 18.7761 6.22386 19 6.5 19H8.5C8.77614 19 9 18.7761 9 18.5V13.5C9 12.6716 9.67157 12 10.5 12H13.5C14.3284 12 15 12.6716 15 13.5V18.5C15 18.7761 15.2239 19 15.5 19H17.5C17.7761 19 18 18.7761 18 18.5V12C18 11.1716 18.6716 10.5 19.5 10.5H19.5427L12.9209 5.34969ZM10.4651 4.56034C11.3679 3.85818 12.6321 3.85818 13.5349 4.56034L21.307 10.6053C21.4756 10.7365 21.5423 10.9602 21.4729 11.1623C21.4036 11.3643 21.2136 11.5 21 11.5H19.5C19.2239 11.5 19 11.7239 19 12V18.5C19 19.3284 18.3284 20 17.5 20H15.5C14.6716 20 14 19.3284 14 18.5V13.5C14 13.2239 13.7761 13 13.5 13H10.5C10.2239 13 10 13.2239 10 13.5V18.5C10 19.3284 9.32843 20 8.5 20H6.5C5.67157 20 5 19.3284 5 18.5V12C5 11.7239 4.77614 11.5 4.5 11.5H3C2.7864 11.5 2.59638 11.3643 2.52706 11.1623C2.45774 10.9602 2.52442 10.7365 2.69303 10.6053L10.4651 4.56034Z" fill="#557184"/>
</svg>
