<svg xmlns="http://www.w3.org/2000/svg" width="24" height="24" fill="none" viewBox="0 0 24 24"><path fill="#007DD0" fill-rule="evenodd" d="M12.8537 3.34052C13.8103 2.78823 15.0334 3.11598 15.5857 4.07257C15.892 4.60297 16.4579 4.92971 17.0703 4.92971C18.1749 4.92971 19.0704 5.82514 19.0704 6.92971C19.0704 7.54212 19.3971 8.10813 19.9274 8.41433C20.884 8.96662 21.2118 10.1898 20.6595 11.1464C20.3533 11.6768 20.3533 12.3303 20.6595 12.8607C21.2118 13.8173 20.8841 15.0404 19.9275 15.5927C19.3971 15.899 19.0704 16.4649 19.0704 17.0773C19.0704 18.1819 18.1749 19.0773 17.0703 19.0773C16.4579 19.0773 15.8919 19.4041 15.5857 19.9345C15.0334 20.8911 13.8102 21.2188 12.8536 20.6665C12.3232 20.3603 11.6698 20.3603 11.1394 20.6665C10.1828 21.2188 8.95963 20.8911 8.40734 19.9345C8.10112 19.4041 7.53518 19.0773 6.92273 19.0773C5.81816 19.0773 4.92273 18.1819 4.92273 17.0773C4.92273 16.4649 4.5959 15.8989 4.06552 15.5927C3.10894 15.0404 2.78118 13.8173 3.33347 12.8607C3.63968 12.3303 3.63974 11.6768 3.33353 11.1464C2.78125 10.1898 3.109 8.96662 4.06558 8.41433C4.59598 8.1081 4.92273 7.54217 4.92273 6.92971C4.92273 5.82514 5.81816 4.92971 6.92273 4.92971C7.53514 4.92971 8.10107 4.60294 8.40728 4.07257C8.95956 3.11599 10.1827 2.78823 11.1393 3.34052C11.6697 3.64676 12.3233 3.64676 12.8537 3.34052ZM9.5 11C10.3284 11 11 10.3284 11 9.5C11 8.67158 10.3284 8 9.5 8C8.67157 8 8 8.67158 8 9.5C8 10.3284 8.67157 11 9.5 11ZM15.3536 9.35356C15.5488 9.15829 15.5488 8.84171 15.3536 8.64645C15.1583 8.45119 14.8417 8.45119 14.6464 8.64645L8.64645 14.6465C8.45118 14.8417 8.45118 15.1583 8.64645 15.3536C8.84171 15.5488 9.15829 15.5488 9.35355 15.3536L15.3536 9.35356ZM16 14.5C16 15.3284 15.3284 16 14.5 16C13.6716 16 13 15.3284 13 14.5C13 13.6716 13.6716 13 14.5 13C15.3284 13 16 13.6716 16 14.5Z" clip-rule="evenodd"/></svg>