<svg xmlns="http://www.w3.org/2000/svg" width="24" height="24" fill="none" viewBox="0 0 24 24"><path fill="#557184" d="M15.3536 8.64645C15.1583 8.45119 14.8417 8.45119 14.6464 8.64645L8.64645 14.6465C8.45118 14.8417 8.45118 15.1583 8.64645 15.3536C8.84171 15.5488 9.15829 15.5488 9.35355 15.3536L15.3536 9.35356C15.5488 9.15829 15.5488 8.84171 15.3536 8.64645Z"/><path fill="#557184" fill-rule="evenodd" d="M9 11C10.1046 11 11 10.1046 11 9C11 7.89543 10.1046 7 9 7C7.89543 7 7 7.89543 7 9C7 10.1046 7.89543 11 9 11ZM9 10C9.55228 10 10 9.55229 10 9C10 8.44772 9.55228 8 9 8C8.44772 8 8 8.44772 8 9C8 9.55229 8.44772 10 9 10Z" clip-rule="evenodd"/><path fill="#557184" fill-rule="evenodd" d="M17 15C17 16.1046 16.1046 17 15 17C13.8954 17 13 16.1046 13 15C13 13.8954 13.8954 13 15 13C16.1046 13 17 13.8954 17 15ZM16 15C16 15.5523 15.5523 16 15 16C14.4477 16 14 15.5523 14 15C14 14.4477 14.4477 14 15 14C15.5523 14 16 14.4477 16 15Z" clip-rule="evenodd"/><path fill="#557184" fill-rule="evenodd" d="M4.92273 17.0773C4.92273 16.4649 4.5959 15.8989 4.06552 15.5927C3.10894 15.0404 2.78118 13.8173 3.33347 12.8607C3.63968 12.3303 3.63974 11.6768 3.33353 11.1464C2.78125 10.1898 3.109 8.96662 4.06558 8.41433C4.59598 8.1081 4.92273 7.54217 4.92273 6.92971C4.92273 5.82514 5.81816 4.92971 6.92273 4.92971C7.53514 4.92971 8.10107 4.60294 8.40728 4.07257C8.95956 3.11598 10.1827 2.78823 11.1393 3.34052C11.6698 3.64676 12.3233 3.64676 12.8537 3.34052C13.8103 2.78823 15.0334 3.11598 15.5857 4.07257C15.892 4.60297 16.4579 4.92971 17.0703 4.92971C18.1749 4.92971 19.0703 5.82514 19.0703 6.92971C19.0703 7.54212 19.3971 8.10813 19.9274 8.41433C20.884 8.96662 21.2118 10.1898 20.6595 11.1464C20.3533 11.6768 20.3533 12.3303 20.6595 12.8607C21.2118 13.8173 20.8841 15.0404 19.9275 15.5927C19.3971 15.8989 19.0703 16.4649 19.0703 17.0773C19.0703 18.1819 18.1749 19.0773 17.0704 19.0773C16.4579 19.0773 15.8919 19.4041 15.5857 19.9345C15.0334 20.8911 13.8102 21.2188 12.8536 20.6665C12.3232 20.3603 11.6698 20.3603 11.1394 20.6665C10.1828 21.2188 8.95963 20.8911 8.40734 19.9345C8.10112 19.4041 7.53518 19.0773 6.92273 19.0773C5.81816 19.0773 4.92273 18.1819 4.92273 17.0773ZM13.3537 4.20654C13.832 3.9304 14.4436 4.09428 14.7197 4.57257C15.2046 5.41237 16.1006 5.92971 17.0703 5.92971C17.6226 5.92971 18.0703 6.37743 18.0703 6.92971C18.0703 7.89931 18.5876 8.79548 19.4274 9.28036C19.9057 9.5565 20.0696 10.1681 19.7935 10.6464C19.3086 11.4862 19.3087 12.521 19.7935 13.3607C20.0697 13.839 19.9058 14.4506 19.4275 14.7267C18.5877 15.2116 18.0703 16.1076 18.0703 17.0773C18.0703 17.6296 17.6226 18.0773 17.0704 18.0773C16.1007 18.0773 15.2045 18.5946 14.7196 19.4345C14.4435 19.9128 13.8319 20.0767 13.3536 19.8005C12.5138 19.3157 11.4792 19.3157 10.6394 19.8005C10.1611 20.0767 9.54951 19.9128 9.27337 19.4345C8.78851 18.5947 7.89246 18.0773 6.92273 18.0773C6.37045 18.0773 5.92273 17.6296 5.92273 17.0773C5.92273 16.1076 5.40524 15.2115 4.56552 14.7267C4.08723 14.4506 3.92335 13.839 4.19949 13.3607C4.68429 12.521 4.68444 11.4862 4.19956 10.6464C3.92341 10.1681 4.08729 9.5565 4.56558 9.28036C5.40538 8.7955 5.92273 7.89943 5.92273 6.92971C5.92273 6.37743 6.37044 5.92971 6.92273 5.92971C7.89245 5.92971 8.78848 5.4123 9.2733 4.57257C9.54945 4.09428 10.161 3.9304 10.6393 4.20654C11.4791 4.69141 12.5139 4.69142 13.3537 4.20654Z" clip-rule="evenodd"/></svg>