<svg width="17" height="16" viewBox="0 0 17 16" fill="none" xmlns="http://www.w3.org/2000/svg">
<g id="Offer">
<path id="Subtract" fill-rule="evenodd" clip-rule="evenodd" d="M9.06912 2.22701C9.70684 1.85882 10.5223 2.07732 10.8905 2.71505C11.0946 3.06865 11.4719 3.28647 11.8802 3.28647C12.6166 3.28647 13.2136 3.88343 13.2136 4.61981C13.2136 5.02808 13.4314 5.40542 13.785 5.60955C14.4227 5.97774 14.6412 6.7932 14.273 7.43092C14.0688 7.7845 14.0689 8.2202 14.273 8.57378C14.6412 9.21151 14.4227 10.027 13.785 10.3952C13.4314 10.5993 13.2136 10.9766 13.2136 11.3849C13.2136 12.1213 12.6166 12.7182 11.8802 12.7182C11.4719 12.7182 11.0946 12.9361 10.8904 13.2897C10.5223 13.9274 9.7068 14.1459 9.06908 13.7777C8.71549 13.5735 8.27985 13.5735 7.92626 13.7777C7.28854 14.1459 6.47308 13.9274 6.10489 13.2897C5.90074 12.9361 5.52345 12.7182 5.11515 12.7182C4.37877 12.7182 3.78182 12.1213 3.78182 11.3849C3.78182 10.9766 3.56393 10.5993 3.21035 10.3952C2.57262 10.027 2.35412 9.21151 2.72231 8.57378C2.92645 8.2202 2.92649 7.7845 2.72235 7.43092C2.35416 6.7932 2.57266 5.97774 3.21039 5.60955C3.56399 5.4054 3.78182 5.02811 3.78182 4.61981C3.78182 3.88343 4.37877 3.28647 5.11515 3.28647C5.52343 3.28647 5.90071 3.06862 6.10485 2.71505C6.47304 2.07732 7.2885 1.85882 7.92622 2.22701C8.27983 2.43117 8.7155 2.43117 9.06912 2.22701ZM6.83333 7.33334C7.38562 7.33334 7.83333 6.88562 7.83333 6.33334C7.83333 5.78105 7.38562 5.33334 6.83333 5.33334C6.28105 5.33334 5.83333 5.78105 5.83333 6.33334C5.83333 6.88562 6.28105 7.33334 6.83333 7.33334ZM10.7357 6.23571C10.8659 6.10553 10.8659 5.89448 10.7357 5.7643C10.6055 5.63413 10.3945 5.63413 10.2643 5.7643L6.2643 9.7643C6.13412 9.89448 6.13412 10.1055 6.2643 10.2357C6.39447 10.3659 6.60553 10.3659 6.7357 10.2357L10.7357 6.23571ZM11.1667 9.66667C11.1667 10.219 10.719 10.6667 10.1667 10.6667C9.61438 10.6667 9.16667 10.219 9.16667 9.66667C9.16667 9.11438 9.61438 8.66667 10.1667 8.66667C10.719 8.66667 11.1667 9.11438 11.1667 9.66667Z" fill="white"/>
</g>
</svg>
