<svg xmlns="http://www.w3.org/2000/svg" width="19" height="18" fill="none" viewBox="0 0 19 18"><path fill="#557184" d="M12.8536 5.64642C12.6583 5.45116 12.3417 5.45116 12.1464 5.64642L6.14645 11.6464C5.95118 11.8417 5.95118 12.1583 6.14645 12.3535C6.34171 12.5488 6.65829 12.5488 6.85355 12.3535L12.8536 6.35353C13.0488 6.15826 13.0488 5.84168 12.8536 5.64642Z"/><path fill="#557184" fill-rule="evenodd" d="M6.5 7.99997C7.60457 7.99997 8.5 7.10454 8.5 5.99997C8.5 4.8954 7.60457 3.99997 6.5 3.99997C5.39543 3.99997 4.5 4.8954 4.5 5.99997C4.5 7.10454 5.39543 7.99997 6.5 7.99997ZM6.5 6.99997C7.05228 6.99997 7.5 6.55226 7.5 5.99997C7.5 5.44769 7.05228 4.99997 6.5 4.99997C5.94772 4.99997 5.5 5.44769 5.5 5.99997C5.5 6.55226 5.94772 6.99997 6.5 6.99997Z" clip-rule="evenodd"/><path fill="#557184" fill-rule="evenodd" d="M14.5 12C14.5 13.1045 13.6046 14 12.5 14C11.3954 14 10.5 13.1045 10.5 12C10.5 10.8954 11.3954 9.99997 12.5 9.99997C13.6046 9.99997 14.5 10.8954 14.5 12ZM13.5 12C13.5 12.5523 13.0523 13 12.5 13C11.9477 13 11.5 12.5523 11.5 12C11.5 11.4477 11.9477 11 12.5 11C13.0523 11 13.5 11.4477 13.5 12Z" clip-rule="evenodd"/><path fill="#557184" fill-rule="evenodd" d="M2.42273 14.0773C2.42273 13.4649 2.0959 12.8989 1.56552 12.5927C0.608935 12.0404 0.281184 10.8172 0.833468 9.86064C1.13968 9.33027 1.13974 8.67672 0.833531 8.14635C0.281247 7.18977 0.608996 5.96659 1.56558 5.4143C2.09598 5.10807 2.42273 4.54214 2.42273 3.92968C2.42273 2.82511 3.31816 1.92968 4.42273 1.92968C5.03514 1.92968 5.60107 1.60291 5.90728 1.07254C6.45956 0.115954 7.68274 -0.211797 8.63933 0.340487C9.16975 0.646726 9.82326 0.646727 10.3537 0.340488C11.3103 -0.211797 12.5334 0.115953 13.0857 1.07254C13.392 1.60294 13.9579 1.92968 14.5703 1.92968C15.6749 1.92968 16.5703 2.82511 16.5703 3.92968C16.5703 4.54209 16.8971 5.1081 17.4274 5.4143C18.384 5.96659 18.7118 7.18977 18.1595 8.14635C17.8533 8.67672 17.8533 9.33027 18.1595 9.86064C18.7118 10.8172 18.3841 12.0404 17.4275 12.5927C16.8971 12.8989 16.5703 13.4649 16.5703 14.0773C16.5703 15.1819 15.6749 16.0773 14.5704 16.0773C13.9579 16.0773 13.3919 16.4041 13.0857 16.9345C12.5334 17.891 11.3102 18.2188 10.3536 17.6665C9.82323 17.3603 9.16977 17.3603 8.63939 17.6665C7.68281 18.2188 6.45963 17.891 5.90734 16.9345C5.60112 16.4041 5.03518 16.0773 4.42273 16.0773C3.31816 16.0773 2.42273 15.1819 2.42273 14.0773ZM10.8537 1.20651C11.332 0.930371 11.9436 1.09425 12.2197 1.57254C12.7046 2.41234 13.6006 2.92968 14.5703 2.92968C15.1226 2.92968 15.5703 3.3774 15.5703 3.92968C15.5703 4.89928 16.0876 5.79545 16.9274 6.28033C17.4057 6.55647 17.5696 7.16806 17.2935 7.64635C16.8086 8.48619 16.8087 9.52094 17.2935 10.3606C17.5697 10.8389 17.4058 11.4505 16.9275 11.7267C16.0877 12.2115 15.5703 13.1076 15.5703 14.0773C15.5703 14.6296 15.1226 15.0773 14.5704 15.0773C13.6007 15.0773 12.7045 15.5946 12.2196 16.4345C11.9435 16.9128 11.3319 17.0766 10.8536 16.8005C10.0138 16.3156 8.97918 16.3156 8.13939 16.8005C7.6611 17.0766 7.04951 16.9127 6.77337 16.4345C6.28851 15.5947 5.39246 15.0773 4.42273 15.0773C3.87045 15.0773 3.42273 14.6296 3.42273 14.0773C3.42273 13.1075 2.90524 12.2115 2.06552 11.7267C1.58723 11.4505 1.42335 10.8389 1.69949 10.3606C2.18429 9.52094 2.18444 8.48619 1.69956 7.64635C1.42341 7.16806 1.58729 6.55647 2.06558 6.28033C2.90538 5.79546 3.42273 4.8994 3.42273 3.92968C3.42273 3.3774 3.87044 2.92968 4.42273 2.92968C5.39245 2.92968 6.28848 2.41227 6.7733 1.57254C7.04945 1.09425 7.66104 0.930371 8.13933 1.20651C8.97915 1.69138 10.0139 1.69139 10.8537 1.20651Z" clip-rule="evenodd"/></svg>